<mxfile host="app.diagrams.net" modified="2023-10-31T22:36:15.300Z" agent="Mozilla/5.0 (Windows NT 10.0; Win64; x64) AppleWebKit/537.36 (KHTML, like Gecko) Chrome/118.0.0.0 Safari/537.36" etag="HSsVDmApjCkC5eco4Sj9" version="22.0.8" type="device">
  <diagram id="C5RBs43oDa-KdzZeNtuy" name="Page-1">
    <mxGraphModel dx="2206" dy="1203" grid="1" gridSize="10" guides="1" tooltips="1" connect="1" arrows="1" fold="1" page="1" pageScale="1" pageWidth="827" pageHeight="1169" math="0" shadow="0">
      <root>
        <mxCell id="WIyWlLk6GJQsqaUBKTNV-0" />
        <mxCell id="WIyWlLk6GJQsqaUBKTNV-1" parent="WIyWlLk6GJQsqaUBKTNV-0" />
        <mxCell id="WIyWlLk6GJQsqaUBKTNV-2" value="" style="rounded=0;html=1;jettySize=auto;orthogonalLoop=1;fontSize=11;endArrow=block;endFill=0;endSize=8;strokeWidth=1;shadow=0;labelBackgroundColor=none;edgeStyle=orthogonalEdgeStyle;" parent="WIyWlLk6GJQsqaUBKTNV-1" source="WIyWlLk6GJQsqaUBKTNV-3" edge="1">
          <mxGeometry relative="1" as="geometry">
            <mxPoint x="220" y="170" as="targetPoint" />
          </mxGeometry>
        </mxCell>
        <mxCell id="WIyWlLk6GJQsqaUBKTNV-3" value="Start" style="rounded=1;whiteSpace=wrap;html=1;fontSize=12;glass=0;strokeWidth=1;shadow=0;" parent="WIyWlLk6GJQsqaUBKTNV-1" vertex="1">
          <mxGeometry x="160" y="96" width="120" height="40" as="geometry" />
        </mxCell>
        <mxCell id="FrEpIwxEG9DmAQTILEQe-0" value="Input Load&amp;nbsp;&lt;br&gt;Demand &lt;br&gt;Information" style="shape=parallelogram;perimeter=parallelogramPerimeter;whiteSpace=wrap;html=1;fixedSize=1;" parent="WIyWlLk6GJQsqaUBKTNV-1" vertex="1">
          <mxGeometry x="160" y="167" width="120" height="60" as="geometry" />
        </mxCell>
        <mxCell id="FrEpIwxEG9DmAQTILEQe-1" value="" style="endArrow=classic;html=1;rounded=0;exitX=0.5;exitY=1;exitDx=0;exitDy=0;" parent="WIyWlLk6GJQsqaUBKTNV-1" source="FrEpIwxEG9DmAQTILEQe-0" target="FrEpIwxEG9DmAQTILEQe-2" edge="1">
          <mxGeometry width="50" height="50" relative="1" as="geometry">
            <mxPoint x="390" y="390" as="sourcePoint" />
            <mxPoint x="220" y="270" as="targetPoint" />
          </mxGeometry>
        </mxCell>
        <mxCell id="FrEpIwxEG9DmAQTILEQe-2" value="Calculate Initial&lt;br&gt;Temperature Conditions" style="rounded=0;whiteSpace=wrap;html=1;" parent="WIyWlLk6GJQsqaUBKTNV-1" vertex="1">
          <mxGeometry x="160" y="251" width="120" height="60" as="geometry" />
        </mxCell>
        <mxCell id="FrEpIwxEG9DmAQTILEQe-3" value="" style="endArrow=classic;html=1;rounded=0;exitX=1;exitY=0.5;exitDx=0;exitDy=0;startArrow=none;" parent="WIyWlLk6GJQsqaUBKTNV-1" source="FrEpIwxEG9DmAQTILEQe-4" edge="1">
          <mxGeometry width="50" height="50" relative="1" as="geometry">
            <mxPoint x="390" y="380" as="sourcePoint" />
            <mxPoint x="330" y="281" as="targetPoint" />
          </mxGeometry>
        </mxCell>
        <mxCell id="FrEpIwxEG9DmAQTILEQe-7" value="" style="edgeStyle=orthogonalEdgeStyle;rounded=0;orthogonalLoop=1;jettySize=auto;html=1;" parent="WIyWlLk6GJQsqaUBKTNV-1" source="FrEpIwxEG9DmAQTILEQe-4" target="FrEpIwxEG9DmAQTILEQe-6" edge="1">
          <mxGeometry relative="1" as="geometry" />
        </mxCell>
        <mxCell id="FrEpIwxEG9DmAQTILEQe-4" value="Initialize &lt;br&gt;Temperature&lt;br&gt;Profile" style="rounded=0;whiteSpace=wrap;html=1;" parent="WIyWlLk6GJQsqaUBKTNV-1" vertex="1">
          <mxGeometry x="314" y="252" width="120" height="60" as="geometry" />
        </mxCell>
        <mxCell id="FrEpIwxEG9DmAQTILEQe-5" value="" style="endArrow=none;html=1;rounded=0;exitX=1;exitY=0.5;exitDx=0;exitDy=0;" parent="WIyWlLk6GJQsqaUBKTNV-1" source="FrEpIwxEG9DmAQTILEQe-2" target="FrEpIwxEG9DmAQTILEQe-4" edge="1">
          <mxGeometry width="50" height="50" relative="1" as="geometry">
            <mxPoint x="280" y="281" as="sourcePoint" />
            <mxPoint x="330" y="281" as="targetPoint" />
          </mxGeometry>
        </mxCell>
        <mxCell id="FrEpIwxEG9DmAQTILEQe-6" value="Initialize Heat Exchanger Power Transient" style="whiteSpace=wrap;html=1;rounded=0;" parent="WIyWlLk6GJQsqaUBKTNV-1" vertex="1">
          <mxGeometry x="474" y="252" width="120" height="60" as="geometry" />
        </mxCell>
        <mxCell id="FrEpIwxEG9DmAQTILEQe-8" value="Finite&lt;br&gt;Elemental&lt;br&gt;Model&lt;br&gt;Time-Loop" style="shape=hexagon;perimeter=hexagonPerimeter2;whiteSpace=wrap;html=1;fixedSize=1;" parent="WIyWlLk6GJQsqaUBKTNV-1" vertex="1">
          <mxGeometry x="160" y="444" width="120" height="80" as="geometry" />
        </mxCell>
        <mxCell id="FrEpIwxEG9DmAQTILEQe-11" value="" style="endArrow=classic;html=1;rounded=0;entryX=0.5;entryY=0;entryDx=0;entryDy=0;exitX=0.5;exitY=1;exitDx=0;exitDy=0;" parent="WIyWlLk6GJQsqaUBKTNV-1" source="FrEpIwxEG9DmAQTILEQe-6" edge="1">
          <mxGeometry width="50" height="50" relative="1" as="geometry">
            <mxPoint x="218.78999999999996" y="330" as="sourcePoint" />
            <mxPoint x="218.78999999999996" y="350" as="targetPoint" />
            <Array as="points">
              <mxPoint x="534" y="330" />
              <mxPoint x="219" y="330" />
            </Array>
          </mxGeometry>
        </mxCell>
        <mxCell id="FrEpIwxEG9DmAQTILEQe-21" value="" style="edgeStyle=orthogonalEdgeStyle;rounded=0;orthogonalLoop=1;jettySize=auto;html=1;" parent="WIyWlLk6GJQsqaUBKTNV-1" source="FrEpIwxEG9DmAQTILEQe-17" target="FrEpIwxEG9DmAQTILEQe-20" edge="1">
          <mxGeometry relative="1" as="geometry" />
        </mxCell>
        <mxCell id="pX-DST7V-c7ylXV_XScW-7" value="" style="edgeStyle=orthogonalEdgeStyle;rounded=0;orthogonalLoop=1;jettySize=auto;html=1;" edge="1" parent="WIyWlLk6GJQsqaUBKTNV-1" source="FrEpIwxEG9DmAQTILEQe-17" target="FrEpIwxEG9DmAQTILEQe-20">
          <mxGeometry relative="1" as="geometry" />
        </mxCell>
        <mxCell id="FrEpIwxEG9DmAQTILEQe-17" value="Spatial&amp;nbsp;&lt;br&gt;Advancement" style="whiteSpace=wrap;html=1;" parent="WIyWlLk6GJQsqaUBKTNV-1" vertex="1">
          <mxGeometry x="180" y="560" width="80" height="60" as="geometry" />
        </mxCell>
        <mxCell id="FrEpIwxEG9DmAQTILEQe-23" value="" style="edgeStyle=orthogonalEdgeStyle;rounded=0;orthogonalLoop=1;jettySize=auto;html=1;" parent="WIyWlLk6GJQsqaUBKTNV-1" source="FrEpIwxEG9DmAQTILEQe-20" target="FrEpIwxEG9DmAQTILEQe-22" edge="1">
          <mxGeometry relative="1" as="geometry" />
        </mxCell>
        <mxCell id="FrEpIwxEG9DmAQTILEQe-20" value="Calculate New Flow Rate" style="whiteSpace=wrap;html=1;" parent="WIyWlLk6GJQsqaUBKTNV-1" vertex="1">
          <mxGeometry x="300" y="560" width="78" height="60" as="geometry" />
        </mxCell>
        <mxCell id="pX-DST7V-c7ylXV_XScW-4" style="edgeStyle=orthogonalEdgeStyle;rounded=0;orthogonalLoop=1;jettySize=auto;html=1;exitX=1;exitY=0.5;exitDx=0;exitDy=0;entryX=0;entryY=0.5;entryDx=0;entryDy=0;" edge="1" parent="WIyWlLk6GJQsqaUBKTNV-1" source="FrEpIwxEG9DmAQTILEQe-22" target="FrEpIwxEG9DmAQTILEQe-44">
          <mxGeometry relative="1" as="geometry" />
        </mxCell>
        <mxCell id="FrEpIwxEG9DmAQTILEQe-22" value="Append Neutronics" style="whiteSpace=wrap;html=1;" parent="WIyWlLk6GJQsqaUBKTNV-1" vertex="1">
          <mxGeometry x="410" y="560" width="60" height="60" as="geometry" />
        </mxCell>
        <mxCell id="FrEpIwxEG9DmAQTILEQe-32" value="" style="edgeStyle=orthogonalEdgeStyle;rounded=0;orthogonalLoop=1;jettySize=auto;html=1;" parent="WIyWlLk6GJQsqaUBKTNV-1" source="FrEpIwxEG9DmAQTILEQe-33" target="FrEpIwxEG9DmAQTILEQe-35" edge="1">
          <mxGeometry relative="1" as="geometry" />
        </mxCell>
        <mxCell id="FrEpIwxEG9DmAQTILEQe-33" value="Define Initial &lt;br&gt;Core Power and Flow Rate" style="whiteSpace=wrap;html=1;" parent="WIyWlLk6GJQsqaUBKTNV-1" vertex="1">
          <mxGeometry x="169" y="350" width="100" height="60" as="geometry" />
        </mxCell>
        <mxCell id="FrEpIwxEG9DmAQTILEQe-34" value="" style="edgeStyle=orthogonalEdgeStyle;rounded=0;orthogonalLoop=1;jettySize=auto;html=1;" parent="WIyWlLk6GJQsqaUBKTNV-1" source="FrEpIwxEG9DmAQTILEQe-35" target="FrEpIwxEG9DmAQTILEQe-36" edge="1">
          <mxGeometry relative="1" as="geometry" />
        </mxCell>
        <mxCell id="FrEpIwxEG9DmAQTILEQe-35" value="Initialize Thermophysical Properties" style="whiteSpace=wrap;html=1;" parent="WIyWlLk6GJQsqaUBKTNV-1" vertex="1">
          <mxGeometry x="320" y="350" width="100" height="60" as="geometry" />
        </mxCell>
        <mxCell id="FrEpIwxEG9DmAQTILEQe-36" value="Initialize Neutronics" style="whiteSpace=wrap;html=1;" parent="WIyWlLk6GJQsqaUBKTNV-1" vertex="1">
          <mxGeometry x="470" y="350" width="100" height="60" as="geometry" />
        </mxCell>
        <mxCell id="pX-DST7V-c7ylXV_XScW-8" style="edgeStyle=orthogonalEdgeStyle;rounded=0;orthogonalLoop=1;jettySize=auto;html=1;exitX=0.5;exitY=1;exitDx=0;exitDy=0;entryX=0.5;entryY=0;entryDx=0;entryDy=0;" edge="1" parent="WIyWlLk6GJQsqaUBKTNV-1" source="FrEpIwxEG9DmAQTILEQe-44" target="FrEpIwxEG9DmAQTILEQe-52">
          <mxGeometry relative="1" as="geometry" />
        </mxCell>
        <mxCell id="FrEpIwxEG9DmAQTILEQe-44" value="Calculate New&lt;br&gt;Core Power" style="whiteSpace=wrap;html=1;" parent="WIyWlLk6GJQsqaUBKTNV-1" vertex="1">
          <mxGeometry x="494" y="560" width="80" height="60" as="geometry" />
        </mxCell>
        <mxCell id="FrEpIwxEG9DmAQTILEQe-52" value="Finite&lt;br&gt;Elemental&lt;br&gt;Model&lt;br&gt;Time-Loop" style="shape=hexagon;perimeter=hexagonPerimeter2;whiteSpace=wrap;html=1;fixedSize=1;" parent="WIyWlLk6GJQsqaUBKTNV-1" vertex="1">
          <mxGeometry x="160" y="660" width="120" height="80" as="geometry" />
        </mxCell>
        <mxCell id="FrEpIwxEG9DmAQTILEQe-54" value="" style="edgeStyle=orthogonalEdgeStyle;rounded=0;orthogonalLoop=1;jettySize=auto;html=1;" parent="WIyWlLk6GJQsqaUBKTNV-1" edge="1">
          <mxGeometry relative="1" as="geometry">
            <mxPoint x="218.62703703703696" y="740" as="sourcePoint" />
            <mxPoint x="218.62703703703696" y="766" as="targetPoint" />
          </mxGeometry>
        </mxCell>
        <mxCell id="FrEpIwxEG9DmAQTILEQe-60" value="" style="endArrow=classic;html=1;rounded=0;entryX=0.544;entryY=0.015;entryDx=0;entryDy=0;exitX=0.5;exitY=1;exitDx=0;exitDy=0;entryPerimeter=0;" parent="WIyWlLk6GJQsqaUBKTNV-1" target="FrEpIwxEG9DmAQTILEQe-8" edge="1" source="FrEpIwxEG9DmAQTILEQe-36">
          <mxGeometry width="50" height="50" relative="1" as="geometry">
            <mxPoint x="463.9999999999999" y="410" as="sourcePoint" />
            <mxPoint x="148.78999999999996" y="448" as="targetPoint" />
            <Array as="points">
              <mxPoint x="520" y="428" />
              <mxPoint x="305" y="428" />
              <mxPoint x="225" y="428" />
            </Array>
          </mxGeometry>
        </mxCell>
        <mxCell id="FrEpIwxEG9DmAQTILEQe-62" value="" style="endArrow=classic;html=1;rounded=0;entryX=0;entryY=0.5;entryDx=0;entryDy=0;exitX=0;exitY=0.5;exitDx=0;exitDy=0;" parent="WIyWlLk6GJQsqaUBKTNV-1" source="FrEpIwxEG9DmAQTILEQe-52" edge="1">
          <mxGeometry width="50" height="50" relative="1" as="geometry">
            <mxPoint x="162" y="928" as="sourcePoint" />
            <mxPoint x="159" y="480" as="targetPoint" />
            <Array as="points">
              <mxPoint x="140" y="700" />
              <mxPoint x="140" y="480" />
            </Array>
          </mxGeometry>
        </mxCell>
        <mxCell id="FrEpIwxEG9DmAQTILEQe-67" value="" style="edgeStyle=orthogonalEdgeStyle;rounded=0;orthogonalLoop=1;jettySize=auto;html=1;" parent="WIyWlLk6GJQsqaUBKTNV-1" source="FrEpIwxEG9DmAQTILEQe-65" target="FrEpIwxEG9DmAQTILEQe-66" edge="1">
          <mxGeometry relative="1" as="geometry" />
        </mxCell>
        <mxCell id="FrEpIwxEG9DmAQTILEQe-65" value="Record/Plot&lt;br&gt;Results" style="whiteSpace=wrap;html=1;" parent="WIyWlLk6GJQsqaUBKTNV-1" vertex="1">
          <mxGeometry x="175" y="767" width="100" height="60" as="geometry" />
        </mxCell>
        <mxCell id="FrEpIwxEG9DmAQTILEQe-66" value="Stop" style="rounded=1;whiteSpace=wrap;html=1;" parent="WIyWlLk6GJQsqaUBKTNV-1" vertex="1">
          <mxGeometry x="326" y="772" width="120" height="50" as="geometry" />
        </mxCell>
        <mxCell id="pX-DST7V-c7ylXV_XScW-3" style="edgeStyle=orthogonalEdgeStyle;rounded=0;orthogonalLoop=1;jettySize=auto;html=1;exitX=0.5;exitY=1;exitDx=0;exitDy=0;entryX=0.432;entryY=-0.01;entryDx=0;entryDy=0;entryPerimeter=0;" edge="1" parent="WIyWlLk6GJQsqaUBKTNV-1" source="FrEpIwxEG9DmAQTILEQe-8" target="FrEpIwxEG9DmAQTILEQe-17">
          <mxGeometry relative="1" as="geometry" />
        </mxCell>
      </root>
    </mxGraphModel>
  </diagram>
</mxfile>
